<?xml version="1.0" encoding="UTF-8"?>
<svg xmlns="http://www.w3.org/2000/svg" version="1.1" viewBox="0 0 150 80">
  <defs>
    <style>
      .cls-1 {
        fill: #0766D1;
      }
    </style>
  </defs>

  <g>
    <g>
      <g>
        <g>
          <path class="cls-1" d="M56.948,43.89c.182,4.99,4.212,6.565,8.486,6.565,3.238,0,7.633-.787,7.633-5.056,0-4.334-5.127-5.057-10.319-6.303-5.129-1.248-10.319-3.087-10.319-9.589,0-6.828,6.289-9.653,11.785-9.653,6.963,0,12.52,2.365,12.946,10.64h-5.191c-.367-4.334-3.907-5.714-7.329-5.714-3.114,0-6.717.921-6.717,4.336,0,4.005,5.498,4.662,10.322,5.909,5.19,1.248,10.32,3.085,10.32,9.653,0,8.078-7.022,10.703-13.435,10.703-7.085,0-13.068-3.087-13.373-11.491h5.191Z"/>
          <path class="cls-1" d="M100.793,42.773c0,3.086-2.81,7.682-9.65,7.682-3.174,0-6.106-1.313-6.106-4.99,0-4.138,2.932-5.45,6.351-6.107,3.481-.658,7.391-.722,9.405-2.298v5.712ZM109.22,50.127c-.671.263-1.16.328-1.587.328-1.65,0-1.65-1.181-1.65-3.807v-17.468c0-7.945-6.165-9.326-11.844-9.326-7.025,0-13.071,2.956-13.376,11.361h5.19c.245-4.989,3.482-6.436,7.879-6.436,3.299,0,7.021.79,7.021,5.649,0,4.202-4.882,3.809-10.624,4.992-5.373,1.116-10.685,2.756-10.685,10.439,0,6.765,4.701,9.521,10.443,9.521,4.394,0,8.242-1.642,11.111-5.253,0,3.677,1.712,5.253,4.4,5.253,1.646,0,2.806-.328,3.722-.919v-4.334Z"/>
          <path class="cls-1" d="M114.04,43.89c.182,4.99,4.212,6.565,8.486,6.565,3.236,0,7.633-.787,7.633-5.056,0-4.334-5.127-5.057-10.32-6.303-5.128-1.248-10.321-3.087-10.321-9.589,0-6.828,6.291-9.653,11.788-9.653,6.963,0,12.519,2.365,12.945,10.64h-5.19c-.367-4.334-3.91-5.714-7.328-5.714-3.114,0-6.719.921-6.719,4.336,0,4.005,5.498,4.662,10.322,5.909,5.19,1.248,10.321,3.085,10.321,9.653,0,8.078-7.025,10.703-13.435,10.703-7.084,0-13.071-3.087-13.375-11.491h5.193Z"/>
        </g>
        <g>
          <path class="cls-1" d="M34.596,29.374l7.881,9.517c10.608,12.871.908,24.03-7.773,26.199-10.009,2.503-19.063-2.703-21.762-10.666,3.481,5.674,13.588,6.904,19.093,3.448,6.247-3.924,8.308-10.813,3.701-16.405,0,0-3.694-4.446-6.443-7.749l.027.031c-.25-.301-.392-.473-.394-.476-1.195-1.448-.769-3.426.682-4.621,1.441-1.188,3.394-1.195,4.594.232l.865,1.043"/>
          <path class="cls-1" d="M23.786,48.793l1.791,2.164c1.2,1.427,3.153,1.417,4.596.229,1.449-1.195,1.877-3.17.682-4.622-.004-.003-.707-.85-1.726-2.074l1.019,1.188c-2.676-3.218-5.943-7.145-5.943-7.145-4.606-5.59-2.545-12.482,3.702-16.406,5.504-3.457,15.612-2.227,19.092,3.45-2.699-7.966-11.753-13.169-21.761-10.668-8.682,2.168-18.381,13.325-7.774,26.199l7.517,9.077"/>
        </g>
        <path class="cls-1" d="M133.519,54.504c0-.951.714-1.666,1.635-1.666.904,0,1.623.715,1.623,1.666,0,.963-.719,1.677-1.623,1.677-.922,0-1.635-.714-1.635-1.677ZM135.155,56.511c1.091,0,2.028-.845,2.028-2.007,0-1.152-.937-2.003-2.028-2.003-1.105,0-2.042.851-2.042,2.003,0,1.162.937,2.007,2.042,2.007ZM134.728,54.66h.402l.611,1.005h.394l-.658-1.02c.341-.039.601-.22.601-.636,0-.456-.27-.657-.819-.657h-.88v2.313h.349v-1.005ZM134.728,54.368v-.719h.477c.244,0,.504.051.504.341,0,.353-.262.378-.561.378h-.42Z"/>
        <path class="cls-1" d="M48.284,54.504c0-.951.714-1.666,1.636-1.666.905,0,1.624.715,1.624,1.666,0,.963-.719,1.677-1.624,1.677-.922,0-1.636-.714-1.636-1.677ZM49.919,56.511c1.092,0,2.029-.845,2.029-2.007,0-1.152-.937-2.003-2.029-2.003-1.103,0-2.04.851-2.04,2.003,0,1.162.937,2.007,2.04,2.007ZM49.494,54.66h.402l.611,1.005h.394l-.658-1.02c.341-.039.601-.22.601-.636,0-.456-.27-.657-.82-.657h-.88v2.313h.351v-1.005ZM49.494,54.368v-.719h.477c.244,0,.503.051.503.341,0,.353-.261.378-.561.378h-.419Z"/>
      </g>
    </g>
  </g>
</svg>